<?xml version="1.0" standalone="no"?>
<!DOCTYPE svg PUBLIC "-//W3C//DTD SVG 20010904//EN"
 "http://www.w3.org/TR/2001/REC-SVG-20010904/DTD/svg10.dtd">
<svg version="1.0" xmlns="http://www.w3.org/2000/svg"
 width="700.000000pt" height="700.000000pt" viewBox="0 0 700.000000 700.000000"
 preserveAspectRatio="xMidYMid meet">
<metadata>
Created by potrace 1.11, written by Peter Selinger 2001-2013
</metadata>
<g transform="translate(0.000000,700.000000) scale(0.100000,-0.100000)"
fill="#000000" stroke="none">
<path d="M5217 6435 c-1 -2 -58 -5 -127 -9 -69 -3 -136 -8 -150 -10 -14 -3
-68 -10 -120 -16 -52 -7 -104 -14 -115 -17 -11 -2 -63 -12 -116 -23 -115 -22
-195 -48 -215 -68 -14 -13 -14 -17 0 -30 17 -17 96 -18 127 -1 41 21 117 39
234 54 66 9 147 24 180 33 52 15 114 17 475 16 531 0 1034 -14 1073 -29 41
-16 51 -66 62 -290 3 -60 7 -121 10 -135 3 -14 7 -45 10 -69 9 -75 44 -200 70
-253 14 -27 22 -54 19 -59 -13 -21 -18 -310 -24 -1372 l0 -87 -87 1 c-49 0
-133 0 -189 0 l-101 -1 -47 -75 c-25 -42 -46 -82 -46 -89 0 -7 -6 -19 -14 -26
-19 -15 -54 22 -78 83 -11 29 -21 41 -33 39 -14 -3 -15 3 -9 34 6 33 5 36 -11
30 -10 -4 -68 -6 -129 -5 -61 0 -146 1 -189 2 -62 0 -80 -3 -90 -16 -22 -31
-157 -26 -157 6 0 16 -41 20 -215 20 -117 0 -149 -4 -195 -21 -127 -48 -189
-76 -184 -84 7 -11 -84 -98 -103 -98 -15 0 -52 38 -53 54 0 4 7 5 16 2 30 -11
2 16 -52 50 -30 19 -54 41 -54 49 0 25 -19 31 -138 40 -124 10 -294 7 -305 -4
-6 -6 -21 -11 -34 -11 -28 0 -32 23 -36 181 -2 128 -8 142 -66 166 -42 18
-239 26 -281 12 -40 -15 -59 -53 -65 -136 -16 -188 -25 -208 -93 -219 -15 -2
-42 -7 -61 -10 -96 -16 -351 0 -351 22 0 3 9 19 20 34 23 32 46 93 53 139 4
24 0 33 -19 45 -32 21 -40 39 -58 126 -15 76 -18 91 -31 170 -5 28 -16 51 -30
62 -28 22 -46 70 -34 89 13 21 11 24 -16 25 -14 1 -44 15 -67 30 -80 56 -94
63 -153 72 -33 6 -116 9 -185 8 -100 -2 -135 -6 -177 -23 -97 -39 -128 -71
-228 -238 l-48 -80 -1 -187 c-1 -134 -5 -191 -14 -200 -6 -6 -12 -23 -12 -36
0 -21 -2 -22 -15 -12 -11 10 -18 10 -29 1 -8 -7 -62 -14 -123 -17 -156 -6
-300 -50 -352 -105 -11 -12 -24 -19 -29 -15 -5 3 -19 -6 -32 -19 -13 -13 -26
-22 -30 -20 -4 2 -6 84 -4 182 l2 178 -35 23 c-20 13 -57 27 -82 32 -60 11
-217 5 -258 -10 -44 -16 -52 -50 -59 -240 -3 -85 -7 -180 -9 -210 -2 -30 -4
-70 -4 -87 -1 -53 -26 -40 -67 35 -21 37 -57 97 -81 134 -47 73 -88 172 -78
188 3 5 -1 10 -9 10 -17 0 -63 73 -77 124 -8 27 -13 33 -30 29 -11 -3 -28 2
-40 13 -17 16 -39 18 -157 19 -179 0 -238 -8 -268 -36 -14 -13 -22 -29 -20
-35 3 -7 0 -14 -7 -17 -9 -3 -13 -73 -15 -263 -1 -142 -5 -266 -8 -274 -14
-38 -38 57 -49 195 -3 44 -11 106 -16 138 -9 52 -8 63 11 98 18 36 19 42 5 55
-18 18 -19 46 -5 94 6 19 11 67 12 105 0 39 6 73 12 77 24 15 7 387 -21 481
-19 61 -21 116 -10 247 15 178 18 195 33 207 9 6 14 15 11 20 -3 4 -8 46 -12
93 -4 47 -9 93 -10 102 -2 9 -7 48 -11 85 -3 37 -10 93 -14 123 -12 84 -5 219
15 267 20 49 30 52 225 68 41 3 98 8 125 11 28 3 286 7 575 9 523 4 609 8 657
26 50 19 100 26 117 17 18 -10 49 -13 221 -23 61 -4 133 -8 160 -11 295 -25
549 -25 725 1 23 3 51 6 228 21 112 9 187 23 221 40 43 22 150 14 206 -15 30
-15 62 -20 130 -22 53 -1 101 -7 117 -15 35 -18 37 -18 31 5 -5 19 -4 19 59 1
166 -49 389 -66 467 -34 23 9 40 18 38 20 -8 8 -111 24 -253 39 -82 8 -169 18
-194 20 -25 3 -79 7 -120 10 -170 10 -265 17 -267 19 -1 1 14 11 35 21 20 11
55 30 77 43 l40 23 -89 -6 c-49 -3 -130 -14 -180 -25 -50 -10 -111 -21 -136
-25 -25 -3 -56 -8 -70 -10 -51 -10 -320 -35 -450 -42 -258 -15 -789 -7 -821
13 -12 7 -138 18 -214 19 -70 0 -83 -3 -103 -22 -26 -27 -36 -27 -292 -23
-333 6 -725 5 -820 -3 -52 -4 -180 -10 -285 -13 -104 -3 -195 -7 -201 -9 -33
-10 -46 -263 -29 -545 5 -74 9 -164 8 -200 0 -88 -13 -292 -19 -301 -2 -4 -7
-46 -10 -93 -6 -77 -4 -88 17 -123 24 -38 24 -40 22 -298 -5 -945 -6 -912 47
-1250 11 -66 22 -140 25 -165 3 -25 8 -56 10 -70 2 -14 6 -50 10 -80 4 -30 8
-66 10 -80 6 -43 14 -150 20 -260 7 -132 16 -170 64 -284 22 -50 44 -118 50
-151 14 -79 24 -348 24 -665 0 -209 -3 -261 -16 -290 l-15 -35 -2 35 c-1 19
-3 42 -4 50 -2 8 -6 35 -9 60 -5 43 -26 132 -62 265 -25 92 -36 154 -42 230
-2 39 -11 98 -19 131 -7 34 -20 120 -29 190 -18 147 -33 224 -45 224 -30 0
-40 -104 -19 -200 13 -65 29 -419 44 -995 7 -257 19 -585 29 -740 1 -23 27
-24 206 -10 140 11 296 11 400 -1 171 -18 1815 -10 1849 10 3 2 30 6 59 10 28
3 67 8 85 11 91 14 151 16 497 20 381 4 453 0 477 -32 8 -10 37 -18 80 -23
102 -11 1728 0 2248 15 267 8 340 17 401 46 77 36 252 234 349 394 36 59 37
61 31 140 -3 44 -8 91 -11 105 -11 54 -37 207 -43 250 -3 25 -5 101 -3 170 9
318 3 556 -14 620 -2 8 -6 38 -10 65 -3 28 -12 91 -20 140 -7 50 -16 108 -19
130 -4 22 -11 65 -16 95 -5 30 -12 73 -15 95 -2 22 -7 58 -9 80 -17 137 -24
282 -27 545 -1 113 -5 216 -8 230 -7 24 -8 23 -60 -27 -41 -40 -52 -56 -46
-70 33 -75 55 -345 32 -377 -12 -16 -14 -16 -33 1 -11 10 -62 74 -112 142 -65
87 -92 131 -92 151 0 16 -6 30 -12 33 -17 5 30 74 100 145 55 56 67 58 75 11
6 -32 -6 -54 -23 -44 -10 6 -11 2 -6 -16 4 -13 11 -39 14 -58 6 -27 9 -31 18
-20 6 8 14 28 17 44 4 17 18 73 32 124 14 52 30 122 35 155 6 34 12 72 14 86
35 208 42 1268 10 1560 -7 62 -20 142 -38 225 -8 39 -17 99 -21 135 -3 36 -8
76 -10 90 -2 14 -7 99 -10 190 -8 186 -11 229 -17 235 -5 5 -108 9 -518 21
-222 6 -828 13 -833 9z m-2392 -1630 c165 -56 251 -166 271 -346 9 -82 10
-245 1 -329 -9 -84 -20 -93 -112 -86 -38 3 -72 5 -75 6 -7 0 -7 9 -10 155 -2
155 7 172 94 181 22 2 42 7 45 9 10 11 -18 135 -42 187 -31 67 -61 98 -93 98
-14 0 -23 4 -19 9 9 15 -23 40 -68 52 -64 19 -241 16 -310 -5 -106 -31 -176
-121 -208 -269 -14 -66 -10 -73 44 -80 53 -7 82 -29 94 -73 15 -53 16 -174 3
-224 -9 -35 -18 -45 -53 -61 -72 -32 -104 -23 -135 36 -38 74 -35 344 4 483
36 124 146 234 264 265 72 19 238 15 305 -8z m-48 -99 c45 -3 66 -17 44 -31
-17 -10 -13 -28 5 -21 20 8 74 -15 97 -42 10 -11 19 -31 21 -45 1 -13 12 -36
23 -51 35 -44 20 -101 -23 -90 -15 4 -24 2 -24 -5 0 -6 -11 -16 -25 -21 -15
-6 -25 -17 -25 -30 0 -28 -11 -25 -50 15 -44 46 -91 60 -166 50 -33 -5 -63 -8
-67 -7 -19 5 -67 -31 -73 -53 -3 -14 -9 -25 -13 -25 -10 0 -52 30 -83 58 -16
14 -28 22 -28 18 0 -5 -6 -3 -14 3 -28 23 15 202 49 207 9 1 27 12 39 23 49
46 166 73 197 45 16 -14 18 -14 24 5 5 17 10 19 25 11 11 -6 41 -12 67 -14z
m-37 -334 c58 -23 102 -103 94 -168 -8 -69 -81 -123 -159 -118 -16 1 -42 2
-57 3 -15 0 -42 14 -59 29 -28 25 -32 36 -35 88 -4 83 22 139 76 163 42 19 98
20 140 3z m1281 -15 c3 -5 5 -25 4 -45 -2 -20 -6 -129 -9 -242 l-7 -205 53 54
c68 69 136 101 227 106 205 11 391 -111 417 -274 4 -23 9 -41 13 -41 3 0 21
29 39 64 103 199 348 293 597 231 136 -34 216 -90 280 -195 139 -229 86 -558
-111 -689 -161 -106 -422 -114 -583 -18 -72 44 -163 135 -189 191 -12 25 -24
46 -27 46 -3 0 -19 -28 -36 -61 -78 -156 -209 -232 -418 -243 -101 -5 -132 7
-197 77 -30 32 -58 57 -61 53 -3 -3 0 -26 6 -52 7 -25 10 -48 8 -50 -2 -3 -73
-5 -158 -6 l-154 -1 -3 654 -2 654 152 0 c84 0 156 -4 159 -8z m-2766 -86 c3
-1 57 -1 121 -1 l115 0 -5 -601 c-3 -331 -7 -603 -9 -606 -3 -2 -96 -4 -208
-4 -166 0 -205 2 -214 14 -5 8 -102 186 -215 396 -112 209 -207 381 -211 381
-4 0 -5 -178 -3 -395 l5 -395 -33 -1 c-82 -2 -282 2 -288 6 -4 2 -6 273 -4
601 1 470 4 598 14 604 15 9 375 9 388 1 13 -9 328 -576 417 -753 22 -42 42
-75 45 -73 3 2 4 184 2 404 -2 274 0 406 7 419 9 17 16 19 41 12 17 -5 33 -9
35 -9z m1916 -2 c21 -40 10 -129 -16 -129 -20 0 -26 14 -27 63 -1 78 19 110
43 66z m-661 -197 c0 -10 -7 -27 -15 -38 -14 -19 -14 -19 -15 3 0 28 10 53 21
53 5 0 9 -8 9 -18z m-358 -67 c229 -57 341 -212 342 -470 0 -203 -57 -321
-204 -421 -79 -53 -126 -67 -245 -71 -351 -15 -535 155 -535 492 0 106 14 175
49 250 88 187 347 283 593 220z m681 -60 c0 -33 -4 -244 -6 -468 -3 -225 -8
-411 -10 -413 -4 -4 -147 -7 -254 -5 l-43 1 0 475 0 474 93 3 c50 2 121 1 157
-2 l65 -5 -2 -60z m2971 61 c81 -3 151 -7 154 -11 3 -3 38 -64 78 -137 l72
-131 40 79 c115 226 100 204 146 205 168 4 306 -4 306 -18 0 -10 -43 -77 -158
-242 -62 -90 -118 -174 -124 -187 -9 -19 -5 -33 25 -87 47 -83 167 -265 225
-340 27 -35 41 -62 35 -68 -5 -5 -88 -10 -185 -11 l-176 -3 -69 138 c-37 76
-71 141 -75 143 -3 2 -26 -33 -51 -78 -79 -146 -99 -183 -107 -191 -12 -14
-318 -11 -339 2 -11 7 21 61 142 239 l156 230 -159 236 c-88 130 -160 238
-160 239 0 2 17 2 38 1 20 -2 104 -5 186 -8z m-3345 -15 c9 -16 8 -18 -9 -14
-26 7 -27 -22 -2 -36 15 -9 15 -12 2 -21 -23 -15 -43 -12 -36 5 4 10 -5 22
-25 34 l-30 18 38 16 c49 21 50 20 62 -2z m1215 -81 c-1 -74 -21 -134 -56
-171 -7 -8 -39 -45 -70 -84 -32 -38 -71 -86 -88 -105 -18 -19 -53 -60 -79 -90
-27 -30 -76 -86 -109 -125 -34 -38 -62 -72 -62 -75 0 -3 100 -5 223 -5 122 1
227 0 233 -2 6 -2 12 -25 13 -51 1 -26 4 -68 6 -94 l4 -48 -57 0 c-117 -1
-708 -1 -735 -1 l-28 1 2 78 c3 110 11 124 194 342 44 52 94 111 111 130 91
101 152 175 149 179 -2 2 -64 5 -137 8 -137 4 -279 10 -289 12 -3 1 -5 42 -5
91 l0 90 391 -2 390 -3 -1 -75z m2880 -134 c-5 -13 -53 -40 -60 -33 -2 1 8 15
22 30 25 27 48 29 38 3z m-3476 -50 c46 -2 88 -8 94 -14 7 -7 -3 -24 -34 -54
-24 -24 -50 -56 -58 -73 -16 -32 -170 -198 -177 -191 -5 4 -8 59 -17 238 -3
66 -1 98 6 100 6 2 32 3 57 1 25 -1 84 -4 129 -7z m-2826 -83 c2 -10 1 -34 -2
-53 l-6 -35 -8 30 c-9 28 -10 41 -7 65 2 17 18 11 23 -7z m3390 -25 c2 -47 -2
-259 -6 -283 -3 -18 -11 -20 -102 -21 -94 0 -158 7 -171 20 -7 7 53 80 137
169 30 32 62 73 70 90 23 50 30 57 51 57 14 0 19 -8 21 -32z m2168 -84 c0 -48
-16 -59 -26 -19 -8 31 3 78 16 70 6 -3 10 -26 10 -51z m-5074 -2 c8 -20 28
-53 43 -72 16 -20 32 -51 36 -70 4 -19 25 -58 46 -86 28 -37 39 -60 39 -86 0
-23 6 -38 15 -42 8 -3 30 -30 50 -60 63 -98 88 -108 294 -110 235 -3 281 16
281 117 l0 51 35 -34 c19 -19 35 -30 35 -25 0 5 17 -7 38 -27 43 -42 72 -58
102 -58 15 0 20 -5 17 -14 -9 -22 14 -26 162 -32 162 -7 247 7 355 61 65 31
156 105 156 125 0 4 6 10 13 13 9 3 11 -11 9 -60 -3 -46 1 -71 12 -88 l16 -24
422 -1 c527 -1 621 -5 660 -24 28 -14 33 -14 59 1 27 16 32 16 74 1 36 -14 45
-14 45 -4 0 8 10 15 23 18 37 6 350 2 377 -5 84 -23 248 -27 264 -6 6 8 22 13
34 11 14 -2 33 5 45 16 12 11 32 23 43 26 12 4 43 29 70 57 56 57 103 89 130
89 11 0 32 -16 48 -36 58 -73 194 -143 331 -170 129 -25 211 -17 345 36 30 12
56 21 57 20 27 -18 187 -34 337 -34 68 0 91 4 100 15 6 9 21 21 33 27 12 7 33
36 47 64 14 29 34 66 45 82 l19 29 25 -49 c14 -27 30 -68 37 -92 7 -23 15 -40
18 -38 2 3 22 -5 44 -16 37 -19 58 -22 202 -22 89 -1 175 2 193 6 39 9 34 22
72 -207 11 -66 23 -140 26 -165 3 -25 8 -56 10 -70 2 -14 7 -45 10 -70 3 -25
8 -64 11 -86 6 -44 7 -56 20 -229 9 -111 10 -346 3 -550 -3 -84 0 -124 13
-170 10 -33 20 -78 23 -100 33 -253 31 -275 -37 -375 -67 -98 -162 -213 -201
-243 -127 -94 -365 -111 -1602 -112 -733 0 -1112 7 -1148 21 -9 3 -19 14 -22
24 -3 10 -13 21 -23 25 -9 3 -206 5 -438 3 -310 -2 -425 -6 -435 -15 -8 -7
-33 -13 -54 -14 -22 -1 -56 -5 -75 -10 -41 -10 -98 -17 -195 -24 -97 -8 -812
-7 -1345 1 -577 9 -603 9 -745 -1 -143 -10 -195 -9 -209 5 -17 17 -13 728 4
830 5 34 6 34 24 -30 20 -72 52 -140 65 -140 19 0 69 63 81 103 9 30 12 121
11 322 -2 487 -11 678 -33 718 -5 10 -7 21 -4 24 13 14 1895 2 2021 -12 22 -3
67 -7 100 -9 75 -6 189 -16 235 -21 87 -10 351 -17 383 -11 23 4 38 14 42 26
9 29 44 25 80 -10 l31 -30 54 30 c30 16 65 29 78 30 20 0 21 -3 12 -20 -9 -16
-8 -22 5 -26 14 -6 258 1 390 11 28 2 93 6 145 9 52 3 131 8 175 11 177 12
240 14 745 20 1246 13 1339 16 1378 41 23 15 26 22 14 41 -11 18 -257 28 -902
38 -927 14 -1065 18 -1190 30 -110 11 -157 14 -250 20 -52 3 -120 7 -150 10
-30 2 -92 7 -137 10 -45 4 -90 8 -100 9 -10 2 -41 -7 -70 -20 -71 -31 -83 -32
-131 -10 -41 19 -41 19 -97 -4 l-57 -23 -58 28 c-57 27 -61 28 -180 21 -67 -3
-125 -8 -129 -10 -3 -2 -51 -7 -106 -11 -55 -3 -116 -8 -135 -10 -33 -4 -163
-14 -255 -21 -218 -14 -451 -18 -1045 -19 -700 0 -872 5 -909 24 -27 15 -32
14 -29 -5 5 -28 -21 -27 -32 1 -5 14 -12 109 -14 211 l-3 184 154 -3 c102 -3
158 0 168 7 18 13 21 48 30 276 4 96 9 193 10 215 2 22 4 48 4 58 1 26 19 11
37 -31z m2441 -945 l46 -44 -30 -33 c-43 -48 -99 -52 -403 -26 -66 6 -194 12
-420 21 -69 3 -377 7 -685 10 -844 7 -1248 15 -1281 25 -26 7 -23 9 26 10 30
2 66 4 80 6 14 1 252 5 530 8 572 7 1169 16 1310 21 145 5 409 16 465 20 166
11 240 17 244 21 2 2 20 4 38 4 27 0 44 -10 80 -43z m503 28 c52 -4 109 -9
125 -10 290 -24 614 -32 1700 -41 358 -3 664 -7 680 -9 17 -1 48 -3 69 -4 42
-1 44 -9 5 -16 -23 -5 -163 -7 -1414 -20 -291 -3 -557 -8 -590 -10 -33 -2
-112 -6 -175 -10 -63 -4 -133 -8 -155 -10 -165 -14 -302 -20 -376 -16 -28 1
-89 53 -89 75 0 35 87 92 120 80 3 -1 48 -5 100 -9z m-306 -20 c21 -16 25 -77
6 -100 -16 -20 -74 -19 -94 1 -22 22 -20 70 4 94 23 23 57 25 84 5z m-3103
-1012 c-9 -15 -10 -12 -10 17 0 29 1 32 10 18 7 -12 7 -24 0 -35z"/>
<path d="M4184 3800 c-49 -11 -90 -40 -113 -80 -68 -121 -59 -355 16 -422 10
-10 35 -24 56 -33 117 -49 231 30 266 185 30 133 -13 283 -94 327 -47 25 -88
32 -131 23z m123 -81 c31 -30 50 -107 54 -223 2 -61 0 -70 -21 -86 -15 -11
-21 -23 -17 -34 8 -21 -25 -56 -55 -57 -64 -5 -91 1 -113 21 -17 16 -24 18
-27 8 -5 -15 -26 19 -34 55 -12 51 -5 243 10 282 14 39 15 39 15 10 1 -26 3
-28 16 -15 8 8 16 26 18 40 3 16 12 27 28 30 34 9 100 -8 126 -31z"/>
<path d="M5151 3790 c-46 -21 -85 -70 -100 -125 -16 -61 -9 -273 11 -310 20
-38 63 -78 106 -99 67 -34 161 20 202 116 20 47 22 64 17 158 -7 130 -29 201
-74 240 -19 17 -41 30 -51 31 -9 1 -29 2 -44 3 -15 2 -45 -5 -67 -14z m132
-68 c33 -35 44 -85 42 -202 -1 -111 -19 -158 -73 -195 -33 -23 -37 -23 -71 -9
-20 8 -47 26 -61 40 -24 23 -25 30 -25 147 0 89 4 129 15 147 8 14 15 30 16
35 0 6 2 16 2 23 3 18 78 50 106 45 13 -3 36 -17 49 -31z"/>
<path d="M5110 3415 c0 -21 17 -45 32 -45 14 0 9 17 -12 41 -19 23 -19 23 -20
4z"/>
<path d="M1946 3799 c-41 -11 -71 -43 -97 -102 -19 -44 -23 -68 -22 -158 2
-133 15 -184 60 -227 53 -49 90 -65 140 -59 74 8 120 68 143 185 26 132 -10
282 -80 332 -35 25 -105 39 -144 29z m131 -99 c66 -96 55 -290 -21 -366 -35
-35 -68 -38 -111 -10 -107 70 -80 390 35 428 26 9 74 -17 97 -52z"/>
<path d="M2118 4276 c-10 -7 -21 -27 -24 -44 -7 -33 12 -102 27 -102 13 0 27
41 30 87 4 77 0 84 -33 59z"/>
</g>
</svg>
