<?xml version="1.0" standalone="no"?>
<!DOCTYPE svg PUBLIC "-//W3C//DTD SVG 20010904//EN"
 "http://www.w3.org/TR/2001/REC-SVG-20010904/DTD/svg10.dtd">
<svg version="1.0" xmlns="http://www.w3.org/2000/svg"
 width="300.000000pt" height="300.000000pt" viewBox="0 0 300.000000 300.000000"
 preserveAspectRatio="xMidYMid meet">
<metadata>
Created by potrace 1.10, written by Peter Selinger 2001-2011
</metadata>
<g transform="translate(0.000000,300.000000) scale(0.100000,-0.100000)"
fill="#000000" stroke="none">
<path d="M2041 2739 c-113 -18 -171 -34 -171 -49 0 -15 43 -18 64 -4 13 7 51
17 87 20 35 3 75 10 89 15 32 11 179 13 400 5 96 -3 193 -6 215 -6 64 0 67 -6
71 -120 3 -95 23 -187 45 -216 5 -6 5 -14 1 -18 -4 -4 -7 -146 -7 -314 l-1
-307 -86 0 c-47 0 -85 -2 -82 -4 2 -2 -5 -16 -16 -31 -11 -16 -20 -33 -20 -39
0 -6 -4 -11 -10 -11 -11 0 -35 41 -32 53 1 5 -3 5 -9 1 -8 -4 -9 1 -5 17 3 13
4 20 1 14 -3 -6 -39 -8 -94 -5 -49 3 -87 2 -85 -1 2 -4 -3 -10 -12 -13 -19 -7
-70 4 -56 13 6 4 -27 7 -74 8 -67 1 -93 -3 -127 -20 -23 -12 -46 -20 -50 -19
-5 1 -6 -1 -4 -5 2 -5 -8 -18 -22 -30 -27 -21 -27 -21 -40 -1 -10 16 -10 19 1
12 7 -4 10 -4 6 1 -4 4 -18 13 -30 20 -13 6 -22 16 -21 21 2 12 -11 14 -109
19 -43 2 -80 0 -83 -5 -3 -5 -11 -7 -18 -4 -8 3 -11 24 -9 68 4 77 -6 86 -98
89 -70 3 -79 -7 -81 -85 -2 -35 -8 -57 -18 -65 -17 -13 -157 -18 -186 -7 -14
6 -14 8 0 24 16 18 30 84 15 75 -8 -5 -22 19 -26 45 -1 8 -5 31 -9 50 -4 19
-8 41 -8 48 0 6 -3 10 -5 7 -3 -3 -10 5 -17 18 -8 15 -8 24 -1 30 7 5 5 7 -4
4 -8 -2 -27 7 -42 20 -22 21 -38 26 -105 29 -104 6 -154 -18 -192 -91 -14 -27
-29 -51 -32 -53 -3 -1 -4 -41 -2 -87 2 -50 -1 -85 -7 -85 -5 0 -7 -8 -4 -17 5
-15 4 -16 -5 -3 -6 8 -11 10 -11 5 0 -6 -24 -10 -57 -9 -57 2 -137 -24 -155
-50 -4 -6 -8 -7 -8 -2 0 6 -7 1 -15 -10 -14 -17 -15 -12 -13 68 2 47 1 85 -1
83 -2 -2 -10 2 -18 10 -19 20 -138 19 -154 -1 -7 -8 -12 -57 -13 -123 0 -60
-4 -112 -8 -116 -4 -4 -17 13 -29 37 -12 23 -24 45 -28 48 -13 11 -40 71 -37
83 1 6 1 8 -2 4 -2 -4 -12 7 -22 25 -10 18 -16 36 -13 40 2 4 -3 5 -11 2 -9
-3 -16 -2 -16 4 0 16 -157 15 -180 -1 -11 -8 -17 -17 -13 -20 3 -4 2 -7 -3 -7
-5 0 -8 -53 -6 -122 2 -91 0 -120 -8 -112 -6 6 -13 42 -16 80 -3 38 -7 75 -10
83 -2 7 1 20 8 29 9 11 10 16 2 19 -8 3 -9 16 -2 46 5 23 7 50 4 59 -2 10 0
16 4 13 14 -9 4 203 -10 220 -7 9 -10 27 -6 47 3 18 7 59 8 90 1 34 6 52 10
45 5 -7 6 3 3 23 -2 19 -7 60 -10 90 -3 30 -8 69 -10 85 -3 17 -2 50 2 74 7
40 11 44 38 47 17 1 53 5 80 8 70 7 279 11 415 8 83 -3 126 1 155 11 22 8 42
12 45 7 3 -4 16 -7 30 -7 14 1 63 -2 110 -6 144 -13 243 -15 300 -6 30 4 91
10 134 13 44 3 82 9 85 13 11 15 70 15 92 0 12 -9 35 -14 55 -11 19 2 44 -1
56 -7 16 -9 19 -8 13 2 -6 9 -3 10 11 5 48 -19 168 -33 201 -24 19 5 33 11 31
14 -7 6 -172 25 -273 31 l-90 5 35 19 35 18 -30 0 c-16 0 -48 -4 -70 -9 -157
-37 -507 -54 -645 -31 -78 13 -143 14 -136 2 10 -15 -68 -19 -208 -11 -75 4
-183 4 -239 -1 -56 -4 -134 -8 -173 -9 l-71 0 -8 -42 c-9 -51 -9 -90 1 -217 4
-58 2 -127 -6 -183 -10 -75 -10 -92 1 -99 11 -6 14 -34 12 -111 -7 -378 -7
-399 21 -568 15 -91 28 -203 29 -250 2 -69 7 -96 29 -140 25 -52 26 -65 30
-240 3 -102 2 -201 -2 -220 -9 -41 -10 -40 -15 20 -2 25 -13 74 -24 110 -11
36 -22 90 -24 121 -1 30 -6 59 -9 64 -3 6 -9 45 -13 88 -4 42 -11 77 -15 77
-16 0 -19 -31 -9 -87 6 -32 14 -212 18 -401 5 -188 11 -345 14 -348 3 -4 54
-1 114 4 68 7 109 7 111 1 2 -5 155 -9 390 -9 303 0 404 3 465 15 52 10 141
15 262 15 157 0 184 -2 189 -16 5 -14 59 -15 528 -10 626 7 618 6 663 41 42
31 133 149 141 182 4 12 -3 67 -13 120 -15 77 -18 114 -12 173 10 97 3 189
-28 375 -19 111 -26 190 -27 302 0 84 -3 153 -5 153 -3 0 -15 -10 -27 -21 -17
-16 -21 -26 -14 -38 11 -22 20 -131 12 -153 -6 -14 -15 -6 -47 38 -22 31 -45
62 -51 68 -6 6 -9 17 -6 25 3 9 0 11 -9 6 -7 -5 1 9 17 31 44 59 64 70 64 33
0 -12 -4 -17 -11 -13 -8 5 -8 1 0 -13 6 -11 7 -24 3 -28 -4 -5 -1 -5 6 -1 7 5
11 10 8 13 -3 3 -1 14 5 25 5 10 18 62 27 116 26 140 23 680 -3 762 -10 34
-19 103 -22 181 l-6 126 -216 6 c-311 10 -431 7 -560 -14z m-801 -691 c68 -35
92 -90 91 -209 0 -51 -5 -97 -10 -102 -4 -4 -24 -7 -42 -5 l-34 3 -3 64 c-3
68 4 81 44 81 20 0 21 3 13 41 -12 52 -38 92 -56 85 -8 -3 -11 -1 -8 4 11 17
-48 32 -112 28 -82 -5 -119 -38 -138 -125 -6 -30 -4 -33 17 -33 37 0 48 -19
48 -82 0 -46 -4 -59 -19 -68 -54 -29 -74 -6 -78 86 -5 126 27 202 99 237 49
24 134 22 188 -5z m-90 -29 c0 9 4 10 13 4 6 -5 22 -8 35 -7 18 1 20 -1 11
-13 -9 -10 -9 -12 3 -8 18 7 56 -25 51 -42 -3 -7 0 -13 6 -13 6 0 11 -11 11
-25 0 -18 -4 -23 -15 -19 -8 4 -15 1 -15 -6 0 -6 -4 -8 -10 -5 -5 3 -10 -2
-10 -12 -1 -16 -2 -16 -13 -2 -21 27 -48 37 -83 29 -19 -4 -34 -6 -34 -4 0 3
-6 -1 -14 -8 -8 -7 -12 -17 -9 -21 3 -5 -4 -4 -15 2 -12 6 -24 16 -27 21 -4 6
-10 8 -14 6 -9 -6 -12 23 -4 44 8 20 10 28 12 42 0 6 4 8 8 5 3 -4 11 0 17 9
15 20 78 34 88 20 5 -7 8 -6 8 3z m50 -166 c37 -47 8 -103 -53 -103 -48 0 -67
16 -67 57 0 47 24 73 66 73 23 0 38 -7 54 -27z m522 -90 l-4 -107 29 31 c73
78 246 33 269 -71 l6 -30 19 36 c39 77 140 119 237 99 77 -15 116 -43 146
-103 47 -94 28 -211 -43 -271 -53 -44 -142 -59 -224 -36 -46 12 -115 72 -123
106 -6 22 -8 21 -27 -18 -29 -59 -84 -92 -163 -97 -62 -4 -65 -3 -95 29 l-32
34 5 -27 5 -28 -68 0 -69 0 0 280 0 280 68 0 67 0 -3 -107z m-1354 -44 c35
-63 79 -144 99 -181 19 -38 35 -68 36 -68 1 0 1 84 -1 186 -3 171 -2 186 13
180 9 -3 41 -6 70 -6 l54 0 -2 -260 -2 -260 -90 0 -90 0 -55 102 c-30 56 -71
133 -91 170 -20 38 -38 70 -40 73 -2 2 -3 -75 -1 -171 l3 -174 -70 0 -71 0 0
258 c0 142 2 261 4 263 2 2 42 3 88 3 l83 -2 63 -113z m997 86 c0 -16 -6 -30
-12 -32 -9 -3 -13 7 -13 32 0 25 4 35 13 33 6 -3 12 -17 12 -33z m-292 -70
c-7 -21 -12 -19 -10 4 0 11 5 18 9 15 4 -3 5 -11 1 -19z m-104 -34 c68 -35
101 -95 101 -183 0 -79 -16 -122 -59 -161 -51 -46 -99 -61 -179 -54 -122 10
-187 84 -186 213 1 82 25 136 77 171 66 45 173 51 246 14z m87 7 c4 -7 3 -8
-4 -4 -7 4 -12 3 -12 -3 0 -5 5 -11 12 -13 7 -3 5 -7 -6 -11 -10 -4 -15 -3
-11 3 3 6 -2 13 -11 17 -18 7 -17 8 23 22 1 1 5 -4 9 -11z m157 -115 c-2 -71
-3 -163 -3 -205 l0 -78 -65 0 -65 0 0 205 0 205 68 0 67 0 -2 -127z m1373 63
l32 -59 31 62 31 61 75 0 c41 0 75 -3 75 -7 0 -5 -27 -46 -60 -93 -33 -47 -63
-90 -66 -96 -4 -10 84 -150 124 -196 14 -17 10 -18 -69 -18 l-85 0 -30 62 -31
62 -34 -62 -34 -62 -78 0 c-61 0 -76 3 -70 13 4 7 36 53 70 103 l61 90 -69
103 -70 102 82 -3 82 -3 33 -59z m-1011 12 c0 -38 -8 -50 -101 -157 l-101
-116 101 0 101 0 3 -42 3 -43 -175 0 -176 0 0 43 c0 39 7 50 99 157 l100 115
-95 3 -94 3 0 39 0 40 168 0 167 0 0 -42z m1235 -47 c0 -5 -7 -12 -16 -15 -14
-5 -15 -4 -4 9 14 17 20 19 20 6z m-1447 -35 c-4 -6 -15 -17 -25 -24 -10 -7
-17 -16 -15 -20 2 -4 -15 -26 -39 -50 l-42 -43 -4 76 -3 76 67 -2 c46 -1 65
-6 61 -13z m-1254 -43 c0 -25 -1 -25 -8 -8 -5 11 -7 23 -4 28 8 14 13 7 12
-20z m1453 -50 l-4 -73 -59 0 c-32 0 -59 4 -59 9 0 5 19 30 43 54 23 24 44 48
46 53 2 5 5 14 8 20 2 6 9 11 16 11 9 0 11 -21 9 -74z m-1222 -18 c5 -3 10
-14 10 -24 0 -10 9 -26 21 -37 11 -10 18 -26 16 -36 -3 -10 -2 -16 2 -14 4 3
15 -11 26 -29 22 -43 35 -47 142 -47 92 0 102 6 103 52 1 24 1 24 15 6 8 -11
15 -16 15 -11 0 4 10 -3 23 -17 12 -13 29 -22 36 -20 8 3 11 0 8 -5 -6 -10 -1
-11 91 -16 71 -4 152 26 188 69 l20 24 -1 -38 c-1 -28 3 -39 15 -40 8 -1 115
-1 237 -1 149 0 223 -4 228 -11 5 -8 11 -8 20 0 10 8 19 8 36 0 12 -7 19 -8
15 -2 -4 6 14 10 47 10 28 0 57 1 62 3 6 1 28 -1 51 -5 71 -13 134 -14 127 -3
-4 6 0 8 10 4 9 -3 17 -2 19 3 2 5 9 10 17 12 8 2 28 18 45 36 35 36 51 40 65
14 5 -10 32 -30 60 -45 66 -36 162 -45 213 -19 21 11 43 16 54 11 27 -10 183
-16 177 -6 -2 4 3 10 11 13 9 3 16 10 16 15 0 6 8 21 17 35 l17 26 17 -34 c9
-18 15 -37 12 -42 -4 -5 -1 -6 5 -2 5 3 12 1 14 -5 5 -14 177 -18 182 -4 5 14
13 -24 32 -150 29 -191 36 -337 23 -440 -3 -22 -2 -47 2 -55 10 -21 19 -75 24
-138 4 -50 1 -56 -39 -110 -77 -100 -83 -104 -198 -118 -151 -19 -1041 -19
-1057 -1 -6 8 -9 16 -7 18 2 2 -83 4 -190 4 -107 0 -194 -4 -194 -8 0 -4 -6
-7 -12 -6 -7 2 -38 -3 -68 -9 -40 -9 -164 -11 -445 -8 -215 2 -399 5 -410 7
-11 1 -57 -1 -102 -5 -66 -6 -84 -5 -88 6 -8 20 -1 386 7 368 3 -8 9 -26 12
-40 3 -14 10 -32 16 -40 9 -13 13 -11 30 10 19 24 20 37 17 235 -3 210 -5 235
-21 246 -11 8 798 3 884 -5 224 -23 316 -25 313 -8 -4 17 22 15 37 -3 11 -13
15 -13 33 0 27 19 54 20 39 2 -8 -9 1 -12 41 -10 57 2 227 12 322 19 33 3 236
6 452 7 298 2 395 5 405 15 7 7 8 15 2 21 -5 5 -197 11 -434 14 -234 2 -434 7
-445 10 -11 2 -78 8 -150 12 -71 4 -133 9 -137 11 -4 3 -21 -2 -38 -11 -24
-12 -33 -13 -49 -3 -16 10 -25 9 -44 -1 -21 -11 -29 -11 -47 2 -16 11 -37 14
-69 11 -301 -29 -389 -33 -724 -34 -254 0 -374 3 -388 11 -15 8 -19 8 -15 0 4
-6 1 -11 -6 -11 -11 0 -14 21 -14 91 l-1 90 72 -3 c57 -2 71 0 73 12 1 8 3 62
6 120 5 132 5 131 22 93 7 -17 18 -34 24 -38z m2150 38 c0 -21 -3 -24 -9 -14
-5 8 -7 20 -4 28 8 21 13 15 13 -14z m-1128 -403 c22 -20 22 -20 3 -39 -19
-18 -28 -18 -190 -5 -102 8 -338 13 -592 13 -275 1 -423 5 -423 11 0 6 150 10
428 11 343 1 667 13 745 27 4 1 18 -7 29 -18z m360 0 c81 -5 334 -10 562 -10
271 0 416 -3 416 -10 0 -7 -148 -10 -422 -10 -275 0 -483 -5 -593 -15 -164
-13 -171 -13 -189 5 -19 19 -19 20 -2 39 13 14 27 18 49 15 18 -2 98 -8 179
-14z m-267 -20 c0 -18 -6 -26 -23 -28 -13 -2 -25 3 -28 12 -10 26 4 48 28 44
17 -2 23 -10 23 -28z m-1338 -412 c-3 -8 -6 -5 -6 6 -1 11 2 17 5 13 3 -3 4
-12 1 -19z"/>
<path d="M1752 1605 c-38 -48 -37 -162 2 -194 29 -24 72 -24 100 1 51 43 54
161 5 201 -32 26 -83 22 -107 -8z m93 -9 c23 -16 36 -136 15 -136 -7 0 -10 -6
-7 -14 10 -25 -60 -37 -75 -13 -4 7 -8 8 -8 2 0 -5 -5 -3 -10 5 -13 20 -12
131 1 150 9 13 10 12 5 -3 -3 -11 -2 -16 4 -12 6 3 10 13 10 21 0 18 40 18 65
0z"/>
<path d="M2181 1604 c-17 -21 -21 -41 -21 -94 0 -57 4 -71 25 -94 13 -14 35
-26 48 -26 29 0 65 32 73 66 11 43 -1 132 -21 154 -27 30 -78 27 -104 -6z m83
-7 c13 -9 18 -28 19 -67 2 -65 -2 -79 -27 -102 -15 -14 -23 -15 -40 -6 -11 6
-24 16 -28 22 -11 17 -9 114 2 121 6 4 8 10 5 15 -6 9 22 29 41 30 5 0 18 -6
28 -13z"/>
<path d="M2190 1461 c0 -6 4 -13 10 -16 6 -3 7 1 4 9 -7 18 -14 21 -14 7z"/>
<path d="M799 1598 c-16 -27 -19 -46 -16 -97 3 -55 7 -67 31 -87 51 -44 102
-19 116 57 17 90 -17 159 -77 159 -27 0 -37 -6 -54 -32z m77 4 c58 -38 35
-201 -26 -185 -29 8 -42 29 -46 76 -4 61 20 117 51 117 6 0 15 -4 21 -8z"/>
<path d="M903 1829 c-11 -11 -6 -59 7 -59 4 0 10 16 12 35 4 36 -1 42 -19 24z"/>
</g>
</svg>
